<svg width="686" height="567" viewBox="0 0 686 567" fill="none" xmlns="http://www.w3.org/2000/svg">
<path d="M58.4935 9.59387L8.28225 57.1419" stroke="#474450" stroke-width="16"/>
<line x1="666.956" y1="454.583" x2="565.808" y2="555.731" stroke="#474450" stroke-width="16"/>
<line y1="-8" x2="163.45" y2="-8" transform="matrix(-0.7261 0.687589 -0.7261 -0.687589 129.246 8.89026)" stroke="#474450" stroke-width="16"/>
<path d="M232.094 6L5.99997 220.102" stroke="#474450" stroke-width="16"/>
<line y1="-8" x2="397.309" y2="-8" transform="matrix(-0.7261 0.687589 -0.7261 -0.687589 297.226 19.2644)" stroke="#474450" stroke-width="16"/>
<path d="M398.248 18.1031L10.1081 385.657" stroke="#474450" stroke-width="16"/>
<path d="M475.847 29.3417L10.1081 470.379" stroke="#474450" stroke-width="16"/>
<path d="M582.66 18.103L21.2072 549.777" stroke="#474450" stroke-width="16"/>
<line y1="-8.50714" x2="745.584" y2="-8.50714" transform="matrix(-0.7261 0.687589 -0.7261 -0.687589 661.029 20.9933)" stroke="#474450" stroke-width="17.0143"/>
<line y1="-8.25897" x2="642.485" y2="-8.25897" transform="matrix(-0.7261 0.687589 -0.7261 -0.687589 668.333 97.9348)" stroke="#474450" stroke-width="16.5179"/>
<line y1="-8" x2="516.754" y2="-8" transform="matrix(-0.7261 0.687589 -0.7261 -0.687589 674.267 170.554)" stroke="#474450" stroke-width="16"/>
<line x1="664.404" y1="279.087" x2="382.573" y2="560.918" stroke="#474450" stroke-width="16"/>
<path d="M666.507 367.231L478.909 554.829" stroke="#474450" stroke-width="16"/>
</svg>
