<svg width="626" height="418" viewBox="0 0 626 418" fill="none" xmlns="http://www.w3.org/2000/svg">
<path d="M626 356.5C626 390.466 598.466 418 564.5 418C530.534 418 503 390.466 503 356.5C503 322.534 530.534 295 564.5 295C598.466 295 626 322.534 626 356.5Z" fill="#725FE6"/>
<path d="M113.627 56.8136C113.627 45.5769 110.295 34.5926 104.052 25.2496C97.8096 15.9067 88.9365 8.62476 78.5552 4.32467C68.1739 0.0245908 56.7505 -1.10051 45.7298 1.09166C34.709 3.28382 24.5858 8.69479 16.6403 16.6403C8.69479 24.5858 3.28382 34.709 1.09166 45.7298C-1.10051 56.7505 0.024591 68.1739 4.32468 78.5552C8.62476 88.9365 15.9067 97.8096 25.2496 104.052C34.5926 110.295 45.5769 113.627 56.8136 113.627V56.8136H113.627Z" fill="#F78300"/>
<rect x="61.0819" y="62.0819" width="517.836" height="306.556" fill="#514E5B"/>
<path d="M112.247 162.877C108.341 162.877 104.75 162.203 101.473 160.857C98.1955 159.51 95.3448 157.624 92.9206 155.2C90.5412 152.776 88.6781 149.925 87.3313 146.648C86.0294 143.371 85.3785 139.779 85.3785 135.873C85.3785 132.013 86.0294 128.444 87.3313 125.166C88.6781 121.889 90.5412 119.038 92.9206 116.614C95.3448 114.19 98.1955 112.304 101.473 110.958C104.75 109.611 108.341 108.937 112.247 108.937C116.108 108.937 119.677 109.611 122.954 110.958C126.231 112.304 129.082 114.19 131.506 116.614C133.931 119.038 135.794 121.889 137.096 125.166C138.442 128.444 139.116 132.013 139.116 135.873C139.116 139.779 138.442 143.371 137.096 146.648C135.794 149.925 133.931 152.776 131.506 155.2C129.082 157.624 126.231 159.51 122.954 160.857C119.677 162.203 116.108 162.877 112.247 162.877ZM112.247 157.894C115.345 157.894 118.218 157.355 120.867 156.277C123.515 155.155 125.805 153.606 127.735 151.631C129.711 149.611 131.237 147.276 132.314 144.628C133.392 141.934 133.931 139.016 133.931 135.873C133.931 132.776 133.392 129.903 132.314 127.254C131.237 124.56 129.711 122.226 127.735 120.251C125.805 118.23 123.515 116.682 120.867 115.604C118.218 114.482 115.345 113.921 112.247 113.921C109.105 113.921 106.209 114.482 103.56 115.604C100.912 116.682 98.5996 118.23 96.6243 120.251C94.6938 122.226 93.1899 124.56 92.1125 127.254C91.035 129.903 90.4963 132.776 90.4963 135.873C90.4963 139.016 91.035 141.934 92.1125 144.628C93.1899 147.276 94.6938 149.611 96.6243 151.631C98.5996 153.606 100.912 155.155 103.56 156.277C106.209 157.355 109.105 157.894 112.247 157.894ZM152.577 162.203C151.814 162.203 151.185 161.956 150.691 161.463C150.198 160.969 149.951 160.34 149.951 159.577V112.237C149.951 111.474 150.198 110.845 150.691 110.352C151.185 109.858 151.814 109.611 152.577 109.611C153.385 109.611 154.058 109.925 154.597 110.554L186.786 152.843V112.237C186.786 111.474 187.033 110.845 187.526 110.352C188.02 109.858 188.649 109.611 189.412 109.611C190.13 109.611 190.736 109.858 191.23 110.352C191.769 110.845 192.038 111.474 192.038 112.237V159.577C192.038 160.34 191.769 160.969 191.23 161.463C190.736 161.956 190.13 162.203 189.412 162.203C189.053 162.203 188.694 162.136 188.334 162.001C187.975 161.867 187.684 161.642 187.459 161.328L155.203 119.038V159.577C155.203 160.34 154.934 160.969 154.395 161.463C153.901 161.956 153.295 162.203 152.577 162.203ZM208.146 162.203C207.382 162.203 206.754 161.956 206.26 161.463C205.766 160.969 205.519 160.34 205.519 159.577V112.237C205.519 111.474 205.766 110.845 206.26 110.352C206.754 109.858 207.382 109.611 208.146 109.611H239.728C240.446 109.611 241.052 109.858 241.546 110.352C242.085 110.801 242.354 111.407 242.354 112.17C242.354 112.843 242.085 113.427 241.546 113.921C241.052 114.414 240.446 114.661 239.728 114.661H210.772V133.247H231.849C232.612 133.247 233.241 133.494 233.735 133.988C234.229 134.482 234.476 135.088 234.476 135.806C234.476 136.524 234.229 137.13 233.735 137.624C233.241 138.118 232.612 138.365 231.849 138.365H210.772V157.153H239.728C240.446 157.153 241.052 157.4 241.546 157.894C242.085 158.387 242.354 158.971 242.354 159.644C242.354 160.408 242.085 161.036 241.546 161.53C241.052 161.979 240.446 162.203 239.728 162.203H208.146ZM103.224 237.203C102.505 237.203 101.877 236.956 101.338 236.463C100.844 235.924 100.597 235.295 100.597 234.577V184.611H105.85V234.577C105.85 235.295 105.603 235.924 105.109 236.463C104.615 236.956 103.987 237.203 103.224 237.203ZM84.6377 189.392C83.9194 189.392 83.3358 189.168 82.8869 188.719C82.438 188.27 82.2135 187.708 82.2135 187.035C82.2135 186.317 82.438 185.733 82.8869 185.284C83.3358 184.835 83.9194 184.611 84.6377 184.611H121.877C122.595 184.611 123.179 184.835 123.628 185.284C124.077 185.733 124.301 186.317 124.301 187.035C124.301 187.708 124.077 188.27 123.628 188.719C123.179 189.168 122.595 189.392 121.877 189.392H84.6377ZM134.69 237.203C133.927 237.203 133.298 236.956 132.804 236.463C132.31 235.969 132.064 235.34 132.064 234.577V187.237C132.064 186.474 132.31 185.845 132.804 185.352C133.298 184.858 133.927 184.611 134.69 184.611C135.453 184.611 136.081 184.858 136.575 185.352C137.069 185.845 137.316 186.474 137.316 187.237V208.247H170.178V187.237C170.178 186.474 170.425 185.845 170.919 185.352C171.413 184.858 172.041 184.611 172.804 184.611C173.567 184.611 174.196 184.858 174.69 185.352C175.184 185.845 175.43 186.474 175.43 187.237V234.577C175.43 235.34 175.184 235.969 174.69 236.463C174.196 236.956 173.567 237.203 172.804 237.203C172.041 237.203 171.413 236.956 170.919 236.463C170.425 235.969 170.178 235.34 170.178 234.577V212.961H137.316V234.577C137.316 235.34 137.069 235.969 136.575 236.463C136.081 236.956 135.453 237.203 134.69 237.203ZM213.191 237.877C209.286 237.877 205.694 237.203 202.417 235.857C199.14 234.51 196.289 232.624 193.865 230.2C191.485 227.776 189.622 224.925 188.276 221.648C186.974 218.371 186.323 214.779 186.323 210.873C186.323 207.013 186.974 203.444 188.276 200.166C189.622 196.889 191.485 194.038 193.865 191.614C196.289 189.19 199.14 187.304 202.417 185.958C205.694 184.611 209.286 183.937 213.191 183.937C217.052 183.937 220.621 184.611 223.898 185.958C227.176 187.304 230.026 189.19 232.451 191.614C234.875 194.038 236.738 196.889 238.04 200.166C239.387 203.444 240.06 207.013 240.06 210.873C240.06 214.779 239.387 218.371 238.04 221.648C236.738 224.925 234.875 227.776 232.451 230.2C230.026 232.624 227.176 234.51 223.898 235.857C220.621 237.203 217.052 237.877 213.191 237.877ZM213.191 232.894C216.289 232.894 219.162 232.355 221.811 231.277C224.46 230.155 226.749 228.606 228.68 226.631C230.655 224.611 232.181 222.276 233.259 219.628C234.336 216.934 234.875 214.016 234.875 210.873C234.875 207.776 234.336 204.903 233.259 202.254C232.181 199.56 230.655 197.226 228.68 195.251C226.749 193.23 224.46 191.682 221.811 190.604C219.162 189.482 216.289 188.921 213.191 188.921C210.049 188.921 207.153 189.482 204.505 190.604C201.856 191.682 199.544 193.23 197.568 195.251C195.638 197.226 194.134 199.56 193.057 202.254C191.979 204.903 191.441 207.776 191.441 210.873C191.441 214.016 191.979 216.934 193.057 219.628C194.134 222.276 195.638 224.611 197.568 226.631C199.544 228.606 201.856 230.155 204.505 231.277C207.153 232.355 210.049 232.894 213.191 232.894ZM271.838 238.281C267.752 238.281 264.116 237.495 260.929 235.924C257.786 234.353 255.317 232.175 253.521 229.392C251.77 226.609 250.895 223.421 250.895 219.83V187.237C250.895 186.474 251.142 185.845 251.636 185.352C252.13 184.858 252.758 184.611 253.521 184.611C254.284 184.611 254.913 184.858 255.407 185.352C255.901 185.845 256.147 186.474 256.147 187.237V219.83C256.147 222.478 256.798 224.813 258.1 226.833C259.447 228.853 261.31 230.447 263.69 231.614C266.069 232.736 268.785 233.298 271.838 233.298C274.846 233.298 277.517 232.736 279.851 231.614C282.186 230.447 284.004 228.853 285.306 226.833C286.652 224.813 287.326 222.478 287.326 219.83V187.237C287.326 186.474 287.573 185.845 288.067 185.352C288.56 184.858 289.189 184.611 289.952 184.611C290.76 184.611 291.389 184.858 291.838 185.352C292.331 185.845 292.578 186.474 292.578 187.237V219.83C292.578 223.421 291.681 226.609 289.885 229.392C288.134 232.175 285.687 234.353 282.545 235.924C279.447 237.495 275.878 238.281 271.838 238.281ZM322.231 237.877C319.357 237.877 316.686 237.473 314.217 236.665C311.793 235.812 309.683 234.622 307.887 233.096C306.091 231.569 304.722 229.796 303.779 227.776C303.42 227.057 303.398 226.407 303.712 225.823C304.071 225.194 304.655 224.768 305.463 224.543C306.091 224.364 306.698 224.431 307.281 224.745C307.91 225.06 308.381 225.531 308.695 226.16C309.369 227.462 310.356 228.629 311.658 229.661C312.96 230.694 314.509 231.502 316.305 232.086C318.1 232.624 320.076 232.894 322.231 232.894C324.61 232.894 326.72 232.512 328.561 231.749C330.401 230.941 331.838 229.796 332.87 228.314C333.948 226.788 334.486 224.947 334.486 222.793C334.486 220.054 333.476 217.697 331.456 215.722C329.436 213.747 326.271 212.49 321.961 211.951C316.709 211.322 312.601 209.706 309.638 207.102C306.675 204.454 305.194 201.221 305.194 197.405C305.194 194.667 305.912 192.288 307.348 190.267C308.83 188.247 310.85 186.698 313.409 185.621C315.968 184.499 318.908 183.937 322.231 183.937C324.7 183.937 326.944 184.341 328.965 185.15C330.985 185.913 332.736 186.945 334.217 188.247C335.744 189.504 336.978 190.896 337.921 192.422C338.37 193.141 338.504 193.836 338.325 194.51C338.19 195.183 337.809 195.699 337.18 196.059C336.507 196.373 335.811 196.418 335.093 196.193C334.419 195.969 333.903 195.542 333.544 194.914C332.87 193.881 332.017 192.916 330.985 192.018C329.997 191.075 328.785 190.335 327.348 189.796C325.912 189.257 324.183 188.965 322.163 188.921C318.617 188.921 315.766 189.684 313.611 191.21C311.456 192.692 310.379 194.869 310.379 197.742C310.379 199.269 310.783 200.683 311.591 201.985C312.399 203.242 313.723 204.341 315.564 205.284C317.449 206.182 319.963 206.855 323.106 207.304C328.718 208.112 332.87 209.841 335.564 212.49C338.302 215.093 339.672 218.505 339.672 222.725C339.672 225.15 339.223 227.304 338.325 229.19C337.472 231.075 336.237 232.669 334.621 233.971C333.05 235.228 331.187 236.193 329.032 236.867C326.922 237.54 324.655 237.877 322.231 237.877ZM347.76 237.203C346.727 237.203 345.987 236.777 345.538 235.924C345.089 235.071 345.044 234.24 345.403 233.432L365.201 186.429C365.695 185.217 366.548 184.611 367.76 184.611C368.927 184.611 369.758 185.217 370.251 186.429L390.117 233.5C390.521 234.353 390.453 235.183 389.915 235.991C389.421 236.799 388.703 237.203 387.76 237.203C387.221 237.203 386.727 237.069 386.278 236.799C385.874 236.53 385.538 236.126 385.268 235.587L366.75 190.671H368.837L350.184 235.587C349.96 236.126 349.623 236.53 349.174 236.799C348.77 237.069 348.299 237.203 347.76 237.203ZM352.204 224.678L354.224 220.166H381.565L383.585 224.678H352.204ZM400.63 237.203C399.867 237.203 399.238 236.956 398.745 236.463C398.251 235.969 398.004 235.34 398.004 234.577V187.237C398.004 186.474 398.251 185.845 398.745 185.352C399.238 184.858 399.867 184.611 400.63 184.611C401.438 184.611 402.112 184.925 402.65 185.554L434.839 227.843V187.237C434.839 186.474 435.086 185.845 435.58 185.352C436.073 184.858 436.702 184.611 437.465 184.611C438.183 184.611 438.789 184.858 439.283 185.352C439.822 185.845 440.091 186.474 440.091 187.237V234.577C440.091 235.34 439.822 235.969 439.283 236.463C438.789 236.956 438.183 237.203 437.465 237.203C437.106 237.203 436.747 237.136 436.388 237.001C436.029 236.867 435.737 236.642 435.512 236.328L403.256 194.038V234.577C403.256 235.34 402.987 235.969 402.448 236.463C401.955 236.956 401.348 237.203 400.63 237.203ZM456.199 237.203C455.436 237.203 454.807 236.956 454.313 236.463C453.819 235.969 453.573 235.34 453.573 234.577V187.237C453.573 186.474 453.819 185.845 454.313 185.352C454.807 184.858 455.436 184.611 456.199 184.611H468.32C472.181 184.611 475.705 185.262 478.892 186.564C482.125 187.821 484.908 189.639 487.243 192.018C489.577 194.353 491.373 197.114 492.63 200.301C493.932 203.488 494.583 207.013 494.583 210.873C494.583 214.734 493.932 218.281 492.63 221.513C491.373 224.701 489.577 227.484 487.243 229.863C484.908 232.198 482.125 234.016 478.892 235.318C475.705 236.575 472.181 237.203 468.32 237.203H456.199ZM458.825 232.49H468.32C472.45 232.49 476.087 231.569 479.229 229.729C482.416 227.843 484.908 225.284 486.704 222.052C488.5 218.775 489.397 215.049 489.397 210.873C489.397 206.698 488.5 202.995 486.704 199.762C484.908 196.485 482.416 193.926 479.229 192.086C476.087 190.245 472.45 189.325 468.32 189.325H458.825V232.49ZM103.224 312.203C102.505 312.203 101.877 311.956 101.338 311.463C100.844 310.924 100.597 310.295 100.597 309.577V259.611H105.85V309.577C105.85 310.295 105.603 310.924 105.109 311.463C104.615 311.956 103.987 312.203 103.224 312.203ZM84.6377 264.392C83.9194 264.392 83.3358 264.168 82.8869 263.719C82.438 263.27 82.2135 262.708 82.2135 262.035C82.2135 261.317 82.438 260.733 82.8869 260.284C83.3358 259.835 83.9194 259.611 84.6377 259.611H121.877C122.595 259.611 123.179 259.835 123.628 260.284C124.077 260.733 124.301 261.317 124.301 262.035C124.301 262.708 124.077 263.27 123.628 263.719C123.179 264.168 122.595 264.392 121.877 264.392H84.6377ZM143.309 312.203C142.681 312.203 142.12 312.001 141.626 311.597C141.177 311.193 140.863 310.677 140.683 310.048L126.878 263.382C126.564 262.304 126.609 261.407 127.013 260.688C127.462 259.97 128.158 259.611 129.101 259.611C129.639 259.611 130.133 259.768 130.582 260.082C131.076 260.352 131.435 260.868 131.659 261.631L144.117 304.998H142.569L154.353 262.776C154.488 262.282 154.78 261.878 155.228 261.564C155.722 261.249 156.261 261.092 156.845 261.092C157.383 261.092 157.9 261.249 158.393 261.564C158.887 261.833 159.202 262.26 159.336 262.843L171.188 304.998H169.639L182.164 261.362C182.479 260.194 183.332 259.611 184.723 259.611C185.666 259.611 186.317 259.992 186.676 260.756C187.035 261.474 187.08 262.349 186.811 263.382L173.074 309.981C172.849 310.699 172.49 311.261 171.996 311.665C171.547 312.024 171.008 312.203 170.38 312.203C169.751 312.203 169.19 312.001 168.696 311.597C168.248 311.193 167.933 310.677 167.754 310.048L156.037 267.288H157.653L146.003 309.981C145.778 310.655 145.419 311.193 144.925 311.597C144.477 312.001 143.938 312.203 143.309 312.203ZM216.216 312.877C212.311 312.877 208.719 312.203 205.442 310.857C202.165 309.51 199.314 307.624 196.89 305.2C194.51 302.776 192.647 299.925 191.301 296.648C189.999 293.371 189.348 289.779 189.348 285.873C189.348 282.013 189.999 278.444 191.301 275.166C192.647 271.889 194.51 269.038 196.89 266.614C199.314 264.19 202.165 262.304 205.442 260.958C208.719 259.611 212.311 258.937 216.216 258.937C220.077 258.937 223.646 259.611 226.923 260.958C230.201 262.304 233.051 264.19 235.476 266.614C237.9 269.038 239.763 271.889 241.065 275.166C242.412 278.444 243.085 282.013 243.085 285.873C243.085 289.779 242.412 293.371 241.065 296.648C239.763 299.925 237.9 302.776 235.476 305.2C233.051 307.624 230.201 309.51 226.923 310.857C223.646 312.203 220.077 312.877 216.216 312.877ZM216.216 307.894C219.314 307.894 222.187 307.355 224.836 306.277C227.485 305.155 229.774 303.606 231.705 301.631C233.68 299.611 235.206 297.276 236.284 294.628C237.361 291.934 237.9 289.016 237.9 285.873C237.9 282.776 237.361 279.903 236.284 277.254C235.206 274.56 233.68 272.226 231.705 270.251C229.774 268.23 227.485 266.682 224.836 265.604C222.187 264.482 219.314 263.921 216.216 263.921C213.074 263.921 210.178 264.482 207.53 265.604C204.881 266.682 202.569 268.23 200.594 270.251C198.663 272.226 197.159 274.56 196.082 277.254C195.004 279.903 194.466 282.776 194.466 285.873C194.466 289.016 195.004 291.934 196.082 294.628C197.159 297.276 198.663 299.611 200.594 301.631C202.569 303.606 204.881 305.155 207.53 306.277C210.178 307.355 213.074 307.894 216.216 307.894ZM265.195 312.203C264.476 312.203 263.848 311.956 263.309 311.463C262.815 310.924 262.568 310.295 262.568 309.577V259.611H267.821V309.577C267.821 310.295 267.574 310.924 267.08 311.463C266.586 311.956 265.958 312.203 265.195 312.203ZM246.609 264.392C245.891 264.392 245.307 264.168 244.858 263.719C244.409 263.27 244.185 262.708 244.185 262.035C244.185 261.317 244.409 260.733 244.858 260.284C245.307 259.835 245.891 259.611 246.609 259.611H283.848C284.566 259.611 285.15 259.835 285.599 260.284C286.048 260.733 286.272 261.317 286.272 262.035C286.272 262.708 286.048 263.27 285.599 263.719C285.15 264.168 284.566 264.392 283.848 264.392H246.609ZM296.661 312.203C295.898 312.203 295.269 311.956 294.775 311.463C294.282 310.969 294.035 310.34 294.035 309.577V262.237C294.035 261.474 294.282 260.845 294.775 260.352C295.269 259.858 295.898 259.611 296.661 259.611C297.424 259.611 298.053 259.858 298.546 260.352C299.04 260.845 299.287 261.474 299.287 262.237V283.247H332.149V262.237C332.149 261.474 332.396 260.845 332.89 260.352C333.384 259.858 334.012 259.611 334.775 259.611C335.539 259.611 336.167 259.858 336.661 260.352C337.155 260.845 337.402 261.474 337.402 262.237V309.577C337.402 310.34 337.155 310.969 336.661 311.463C336.167 311.956 335.539 312.203 334.775 312.203C334.012 312.203 333.384 311.956 332.89 311.463C332.396 310.969 332.149 310.34 332.149 309.577V287.961H299.287V309.577C299.287 310.34 299.04 310.969 298.546 311.463C298.053 311.956 297.424 312.203 296.661 312.203Z" fill="white"/>
<rect x="61.0819" y="62.0819" width="517.836" height="306.556" stroke="white" stroke-width="11.8362"/>
</svg>
